<svg width="544" height="544" viewBox="0 0 544 544" fill="none" xmlns="http://www.w3.org/2000/svg">
<rect width="543.869" height="543.869" rx="271.934" fill="#333333"/>
<path d="M204.915 262L216.167 219.194H230.232L241.484 262H233.167L230.843 252.583H215.555L213.232 262H204.915ZM217.451 245.122H228.948L223.75 224.269H222.649L217.451 245.122ZM247.256 262V238.028H239.551V231.669H247.256V226.043C247.256 223.963 247.868 222.312 249.091 221.089C250.355 219.826 251.985 219.194 253.983 219.194H261.933V225.553H256.674C255.532 225.553 254.962 226.165 254.962 227.388V231.669H262.911V238.028H254.962V262H247.256ZM265.819 262V231.669H273.402V235.093H274.502C274.951 233.87 275.685 232.973 276.704 232.402C277.764 231.832 278.987 231.546 280.373 231.546H284.042V238.395H280.251C278.294 238.395 276.684 238.925 275.42 239.985C274.156 241.004 273.524 242.594 273.524 244.755V262H265.819ZM287.007 262V231.669H294.712V262H287.007ZM290.86 228.122C289.474 228.122 288.291 227.673 287.313 226.776C286.375 225.88 285.906 224.697 285.906 223.23C285.906 221.762 286.375 220.58 287.313 219.683C288.291 218.786 289.474 218.338 290.86 218.338C292.286 218.338 293.469 218.786 294.406 219.683C295.344 220.58 295.813 221.762 295.813 223.23C295.813 224.697 295.344 225.88 294.406 226.776C293.469 227.673 292.286 228.122 290.86 228.122ZM314.441 262.856C311.506 262.856 308.836 262.245 306.43 261.022C304.066 259.799 302.191 258.025 300.804 255.701C299.418 253.378 298.725 250.565 298.725 247.262V246.406C298.725 243.104 299.418 240.291 300.804 237.967C302.191 235.644 304.066 233.87 306.43 232.647C308.836 231.424 311.506 230.813 314.441 230.813C317.336 230.813 319.823 231.322 321.902 232.341C323.981 233.361 325.653 234.767 326.916 236.561C328.221 238.314 329.077 240.311 329.485 242.554L322.024 244.144C321.861 242.921 321.494 241.82 320.923 240.841C320.353 239.863 319.537 239.088 318.477 238.518C317.458 237.947 316.174 237.662 314.625 237.662C313.076 237.662 311.669 238.008 310.405 238.701C309.182 239.353 308.204 240.352 307.47 241.698C306.777 243.002 306.43 244.612 306.43 246.529V247.14C306.43 249.056 306.777 250.687 307.47 252.032C308.204 253.337 309.182 254.336 310.405 255.029C311.669 255.681 313.076 256.007 314.625 256.007C316.949 256.007 318.702 255.416 319.884 254.234C321.107 253.011 321.881 251.421 322.208 249.464L329.668 251.237C329.138 253.398 328.221 255.375 326.916 257.169C325.653 258.922 323.981 260.308 321.902 261.327C319.823 262.347 317.336 262.856 314.441 262.856ZM342.384 262.856C340.223 262.856 338.287 262.489 336.575 261.755C334.862 260.981 333.497 259.88 332.477 258.453C331.499 256.986 331.01 255.212 331.01 253.133C331.01 251.054 331.499 249.321 332.477 247.935C333.497 246.508 334.883 245.448 336.636 244.755C338.429 244.021 340.468 243.654 342.751 243.654H351.068V241.942C351.068 240.515 350.619 239.353 349.722 238.456C348.825 237.519 347.398 237.05 345.442 237.05C343.525 237.05 342.099 237.498 341.161 238.395C340.223 239.251 339.612 240.373 339.326 241.759L332.233 239.374C332.722 237.825 333.497 236.418 334.557 235.154C335.657 233.85 337.104 232.81 338.898 232.036C340.733 231.22 342.955 230.813 345.564 230.813C349.559 230.813 352.719 231.811 355.042 233.809C357.366 235.807 358.528 238.701 358.528 242.493V253.806C358.528 255.029 359.099 255.64 360.24 255.64H362.686V262H357.55C356.041 262 354.798 261.633 353.819 260.899C352.841 260.165 352.352 259.187 352.352 257.964V257.903H351.19C351.027 258.392 350.66 259.044 350.089 259.86C349.518 260.634 348.621 261.327 347.398 261.939C346.175 262.55 344.504 262.856 342.384 262.856ZM343.729 256.619C345.89 256.619 347.643 256.027 348.988 254.845C350.374 253.622 351.068 252.012 351.068 250.014V249.403H343.301C341.874 249.403 340.753 249.708 339.938 250.32C339.123 250.931 338.715 251.788 338.715 252.888C338.715 253.989 339.143 254.886 339.999 255.579C340.855 256.272 342.099 256.619 343.729 256.619ZM59.8612 323V280.194H77.473C80.1637 280.194 82.5282 280.744 84.5666 281.845C86.6458 282.905 88.2561 284.413 89.3976 286.37C90.5799 288.327 91.171 290.651 91.171 293.341V294.197C91.171 296.847 90.5595 299.171 89.3365 301.169C88.1542 303.126 86.5235 304.654 84.4443 305.755C82.4059 306.815 80.0821 307.345 77.473 307.345H67.9333V323H59.8612ZM67.9333 300.007H76.678C78.5941 300.007 80.1433 299.477 81.3256 298.417C82.5078 297.357 83.099 295.91 83.099 294.075V293.464C83.099 291.629 82.5078 290.182 81.3256 289.122C80.1433 288.062 78.5941 287.532 76.678 287.532H67.9333V300.007ZM93.9544 323V292.669H101.537V296.093H102.638C103.086 294.87 103.82 293.973 104.839 293.402C105.899 292.832 107.122 292.546 108.509 292.546H112.178V299.395H108.386C106.429 299.395 104.819 299.925 103.555 300.985C102.291 302.004 101.66 303.594 101.66 305.755V323H93.9544ZM128.5 323.856C125.483 323.856 122.772 323.245 120.366 322.022C117.961 320.799 116.065 319.025 114.679 316.701C113.293 314.378 112.6 311.585 112.6 308.324V307.345C112.6 304.084 113.293 301.291 114.679 298.967C116.065 296.644 117.961 294.87 120.366 293.647C122.772 292.424 125.483 291.813 128.5 291.813C131.516 291.813 134.227 292.424 136.633 293.647C139.038 294.87 140.934 296.644 142.32 298.967C143.706 301.291 144.399 304.084 144.399 307.345V308.324C144.399 311.585 143.706 314.378 142.32 316.701C140.934 319.025 139.038 320.799 136.633 322.022C134.227 323.245 131.516 323.856 128.5 323.856ZM128.5 317.007C130.864 317.007 132.821 316.253 134.37 314.744C135.919 313.195 136.694 310.994 136.694 308.14V307.529C136.694 304.675 135.919 302.494 134.37 300.985C132.862 299.436 130.905 298.662 128.5 298.662C126.135 298.662 124.178 299.436 122.629 300.985C121.08 302.494 120.305 304.675 120.305 307.529V308.14C120.305 310.994 121.08 313.195 122.629 314.744C124.178 316.253 126.135 317.007 128.5 317.007ZM160.684 323.856C158.279 323.856 156.016 323.265 153.896 322.083C151.817 320.86 150.146 319.086 148.882 316.763C147.618 314.439 146.986 311.626 146.986 308.324V307.345C146.986 304.043 147.618 301.23 148.882 298.906C150.146 296.582 151.817 294.829 153.896 293.647C155.975 292.424 158.238 291.813 160.684 291.813C162.519 291.813 164.047 292.037 165.27 292.485C166.534 292.893 167.553 293.423 168.328 294.075C169.103 294.727 169.694 295.42 170.101 296.154H171.202V280.194H178.907V323H171.325V319.331H170.224C169.531 320.472 168.45 321.512 166.983 322.45C165.556 323.387 163.456 323.856 160.684 323.856ZM163.008 317.129C165.372 317.129 167.35 316.375 168.94 314.867C170.53 313.318 171.325 311.075 171.325 308.14V307.529C171.325 304.593 170.53 302.371 168.94 300.863C167.39 299.314 165.413 298.539 163.008 298.539C160.643 298.539 158.666 299.314 157.076 300.863C155.486 302.371 154.691 304.593 154.691 307.529V308.14C154.691 311.075 155.486 313.318 157.076 314.867C158.666 316.375 160.643 317.129 163.008 317.129ZM195.95 323.489C193.586 323.489 191.506 322.959 189.713 321.899C187.96 320.799 186.594 319.29 185.615 317.374C184.637 315.458 184.148 313.256 184.148 310.77V292.669H191.853V310.158C191.853 312.441 192.403 314.153 193.504 315.295C194.646 316.436 196.256 317.007 198.335 317.007C200.7 317.007 202.534 316.233 203.839 314.683C205.143 313.093 205.796 310.892 205.796 308.079V292.669H213.501V323H205.918V319.025H204.817C204.328 320.044 203.411 321.043 202.065 322.022C200.72 323 198.682 323.489 195.95 323.489ZM233.266 323.856C230.33 323.856 227.66 323.245 225.255 322.022C222.89 320.799 221.015 319.025 219.629 316.701C218.243 314.378 217.55 311.565 217.55 308.262V307.406C217.55 304.104 218.243 301.291 219.629 298.967C221.015 296.644 222.89 294.87 225.255 293.647C227.66 292.424 230.33 291.813 233.266 291.813C236.16 291.813 238.647 292.322 240.726 293.341C242.805 294.361 244.477 295.767 245.741 297.561C247.045 299.314 247.901 301.311 248.309 303.554L240.849 305.144C240.685 303.921 240.319 302.82 239.748 301.841C239.177 300.863 238.362 300.088 237.302 299.518C236.283 298.947 234.998 298.662 233.449 298.662C231.9 298.662 230.493 299.008 229.23 299.701C228.007 300.353 227.028 301.352 226.294 302.698C225.601 304.002 225.255 305.612 225.255 307.529V308.14C225.255 310.056 225.601 311.687 226.294 313.032C227.028 314.337 228.007 315.336 229.23 316.029C230.493 316.681 231.9 317.007 233.449 317.007C235.773 317.007 237.526 316.416 238.708 315.234C239.931 314.011 240.706 312.421 241.032 310.464L248.493 312.237C247.963 314.398 247.045 316.375 245.741 318.169C244.477 319.922 242.805 321.308 240.726 322.327C238.647 323.347 236.16 323.856 233.266 323.856ZM262.395 323C260.397 323 258.766 322.388 257.502 321.165C256.279 319.902 255.668 318.23 255.668 316.151V299.028H248.085V292.669H255.668V283.251H263.373V292.669H271.69V299.028H263.373V314.806C263.373 316.029 263.944 316.64 265.085 316.64H270.956V323H262.395ZM287.831 323V280.194H295.903V297.194H297.004L310.886 280.194H321.22L303.364 301.291L321.832 323H311.191L297.004 305.633H295.903V323H287.831ZM336.223 323.856C333.206 323.856 330.536 323.224 328.212 321.96C325.929 320.656 324.135 318.842 322.83 316.518C321.567 314.153 320.935 311.381 320.935 308.201V307.467C320.935 304.288 321.567 301.536 322.83 299.212C324.094 296.847 325.868 295.033 328.151 293.769C330.434 292.465 333.084 291.813 336.1 291.813C339.076 291.813 341.665 292.485 343.867 293.831C346.068 295.135 347.78 296.97 349.003 299.334C350.226 301.658 350.838 304.369 350.838 307.467V310.097H328.762C328.844 312.176 329.618 313.868 331.086 315.173C332.554 316.477 334.347 317.129 336.467 317.129C338.628 317.129 340.218 316.661 341.237 315.723C342.256 314.785 343.031 313.746 343.561 312.604L349.86 315.906C349.289 316.966 348.453 318.128 347.352 319.392C346.292 320.615 344.865 321.675 343.072 322.572C341.278 323.428 338.995 323.856 336.223 323.856ZM328.823 304.349H343.011C342.847 302.596 342.134 301.189 340.87 300.129C339.647 299.069 338.037 298.539 336.039 298.539C333.96 298.539 332.309 299.069 331.086 300.129C329.863 301.189 329.109 302.596 328.823 304.349ZM357.941 335.23V328.504H374.452C375.593 328.504 376.164 327.892 376.164 326.669V319.025H375.063C374.737 319.718 374.227 320.411 373.534 321.104C372.841 321.797 371.904 322.368 370.721 322.817C369.539 323.265 368.031 323.489 366.196 323.489C363.832 323.489 361.752 322.959 359.959 321.899C358.206 320.799 356.84 319.29 355.862 317.374C354.883 315.458 354.394 313.256 354.394 310.77V292.669H362.099V310.158C362.099 312.441 362.649 314.153 363.75 315.295C364.892 316.436 366.502 317.007 368.581 317.007C370.946 317.007 372.78 316.233 374.085 314.683C375.389 313.093 376.042 310.892 376.042 308.079V292.669H383.747V328.381C383.747 330.461 383.135 332.112 381.912 333.335C380.689 334.598 379.058 335.23 377.02 335.23H357.941ZM389.263 323V292.669H396.846V296.644H397.947C398.436 295.584 399.353 294.585 400.699 293.647C402.044 292.669 404.083 292.179 406.814 292.179C409.179 292.179 411.237 292.73 412.99 293.831C414.784 294.89 416.17 296.379 417.149 298.295C418.127 300.17 418.616 302.371 418.616 304.899V323H410.911V305.511C410.911 303.228 410.34 301.515 409.199 300.374C408.098 299.232 406.508 298.662 404.429 298.662C402.065 298.662 400.23 299.456 398.925 301.046C397.621 302.596 396.969 304.777 396.969 307.59V323H389.263ZM438.32 323.856C435.303 323.856 432.592 323.245 430.187 322.022C427.782 320.799 425.886 319.025 424.5 316.701C423.114 314.378 422.421 311.585 422.421 308.324V307.345C422.421 304.084 423.114 301.291 424.5 298.967C425.886 296.644 427.782 294.87 430.187 293.647C432.592 292.424 435.303 291.813 438.32 291.813C441.337 291.813 444.048 292.424 446.453 293.647C448.859 294.87 450.754 296.644 452.14 298.967C453.527 301.291 454.22 304.084 454.22 307.345V308.324C454.22 311.585 453.527 314.378 452.14 316.701C450.754 319.025 448.859 320.799 446.453 322.022C444.048 323.245 441.337 323.856 438.32 323.856ZM438.32 317.007C440.685 317.007 442.642 316.253 444.191 314.744C445.74 313.195 446.514 310.994 446.514 308.14V307.529C446.514 304.675 445.74 302.494 444.191 300.985C442.682 299.436 440.725 298.662 438.32 298.662C435.956 298.662 433.999 299.436 432.45 300.985C430.9 302.494 430.126 304.675 430.126 307.529V308.14C430.126 310.994 430.9 313.195 432.45 314.744C433.999 316.253 435.956 317.007 438.32 317.007ZM468.878 323C466.88 323 465.25 322.388 463.986 321.165C462.763 319.902 462.151 318.23 462.151 316.151V299.028H454.568V292.669H462.151V283.251H469.856V292.669H478.173V299.028H469.856V314.806C469.856 316.029 470.427 316.64 471.569 316.64H477.439V323H468.878ZM494.836 323.856C491.819 323.856 489.148 323.224 486.825 321.96C484.542 320.656 482.748 318.842 481.443 316.518C480.179 314.153 479.548 311.381 479.548 308.201V307.467C479.548 304.288 480.179 301.536 481.443 299.212C482.707 296.847 484.48 295.033 486.763 293.769C489.046 292.465 491.696 291.813 494.713 291.813C497.689 291.813 500.278 292.485 502.48 293.831C504.681 295.135 506.393 296.97 507.616 299.334C508.839 301.658 509.451 304.369 509.451 307.467V310.097H487.375C487.457 312.176 488.231 313.868 489.699 315.173C491.166 316.477 492.96 317.129 495.08 317.129C497.241 317.129 498.831 316.661 499.85 315.723C500.869 314.785 501.644 313.746 502.174 312.604L508.472 315.906C507.902 316.966 507.066 318.128 505.965 319.392C504.905 320.615 503.478 321.675 501.685 322.572C499.891 323.428 497.608 323.856 494.836 323.856ZM487.436 304.349H501.623C501.46 302.596 500.747 301.189 499.483 300.129C498.26 299.069 496.65 298.539 494.652 298.539C492.573 298.539 490.922 299.069 489.699 300.129C488.476 301.189 487.722 302.596 487.436 304.349Z" fill="#FAFAFA"/>
<path d="M270.076 143.438L271.083 138.241L273.823 142.771L279.336 151.886L289.431 154.617L294.123 155.887L289.929 158.346L268.162 171.106L264.27 173.387L265.129 168.958L270.076 143.438Z" fill="#168C50" stroke="#168C50" stroke-width="4.07901" stroke-linecap="square"/>
<rect x="286.3" y="98.5762" width="110.044" height="42.344" fill="#168C50" stroke="#333333" stroke-width="4.07901"/>
<path d="M320.033 107.43H325.189L330.636 120.717H330.868L336.314 107.43H341.471V127.207H337.415V114.334H337.251L332.133 127.11H329.371L324.253 114.286H324.089V127.207H320.033V107.43ZM350.725 127.496C349.225 127.496 347.927 127.178 346.833 126.54C345.745 125.897 344.905 125.002 344.312 123.856C343.72 122.703 343.424 121.368 343.424 119.848C343.424 118.316 343.72 116.977 344.312 115.831C344.905 114.679 345.745 113.784 346.833 113.146C347.927 112.503 349.225 112.181 350.725 112.181C352.225 112.181 353.519 112.503 354.607 113.146C355.701 113.784 356.544 114.679 357.137 115.831C357.729 116.977 358.025 118.316 358.025 119.848C358.025 121.368 357.729 122.703 357.137 123.856C356.544 125.002 355.701 125.897 354.607 126.54C353.519 127.178 352.225 127.496 350.725 127.496ZM350.744 124.31C351.426 124.31 351.996 124.117 352.453 123.73C352.91 123.338 353.255 122.803 353.486 122.127C353.725 121.451 353.844 120.682 353.844 119.819C353.844 118.957 353.725 118.187 353.486 117.511C353.255 116.835 352.91 116.301 352.453 115.908C351.996 115.516 351.426 115.319 350.744 115.319C350.055 115.319 349.476 115.516 349.006 115.908C348.542 116.301 348.191 116.835 347.953 117.511C347.721 118.187 347.605 118.957 347.605 119.819C347.605 120.682 347.721 121.451 347.953 122.127C348.191 122.803 348.542 123.338 349.006 123.73C349.476 124.117 350.055 124.31 350.744 124.31ZM359.884 127.207V112.374H363.998V127.207H359.884ZM361.951 110.462C361.339 110.462 360.814 110.259 360.377 109.853C359.945 109.441 359.73 108.949 359.73 108.376C359.73 107.809 359.945 107.323 360.377 106.918C360.814 106.506 361.339 106.3 361.951 106.3C362.562 106.3 363.084 106.506 363.515 106.918C363.953 107.323 364.172 107.809 364.172 108.376C364.172 108.949 363.953 109.441 363.515 109.853C363.084 110.259 362.562 110.462 361.951 110.462Z" fill="#FAFAFA"/>
<path d="M292.104 401.178L291.096 406.375L288.357 401.845L282.843 392.729L272.749 389.998L268.056 388.728L272.25 386.27L294.017 373.51L297.91 371.228L297.051 375.657L292.104 401.178Z" fill="#FF5A5A" stroke="#FF5A5A" stroke-width="4.07901" stroke-linecap="square"/>
<rect x="282.04" y="447.04" width="98.079" height="48.079" transform="rotate(-180 282.04 447.04)" fill="#FF5A5A" stroke="#333333" stroke-width="4.07901"/>
<path d="M204.75 411.223L209.53 426.249H209.713L214.503 411.223H219.138L212.32 431H206.932L200.105 411.223H204.75ZM225.654 431.29C224.154 431.29 222.857 430.971 221.763 430.334C220.675 429.69 219.834 428.795 219.242 427.649C218.65 426.497 218.354 425.161 218.354 423.642C218.354 422.109 218.65 420.77 219.242 419.624C219.834 418.472 220.675 417.577 221.763 416.94C222.857 416.296 224.154 415.974 225.654 415.974C227.154 415.974 228.448 416.296 229.536 416.94C230.631 417.577 231.474 418.472 232.066 419.624C232.659 420.77 232.955 422.109 232.955 423.642C232.955 425.161 232.659 426.497 232.066 427.649C231.474 428.795 230.631 429.69 229.536 430.334C228.448 430.971 227.154 431.29 225.654 431.29ZM225.674 428.103C226.356 428.103 226.926 427.91 227.383 427.524C227.84 427.131 228.184 426.597 228.416 425.921C228.654 425.245 228.773 424.475 228.773 423.613C228.773 422.75 228.654 421.981 228.416 421.305C228.184 420.629 227.84 420.094 227.383 419.702C226.926 419.309 226.356 419.113 225.674 419.113C224.985 419.113 224.405 419.309 223.935 419.702C223.472 420.094 223.121 420.629 222.883 421.305C222.651 421.981 222.535 422.75 222.535 423.613C222.535 424.475 222.651 425.245 222.883 425.921C223.121 426.597 223.472 427.131 223.935 427.524C224.405 427.91 224.985 428.103 225.674 428.103ZM244.326 424.684V416.167H248.44V431H244.49V428.306H244.335C244.001 429.175 243.444 429.873 242.665 430.401C241.892 430.929 240.949 431.193 239.835 431.193C238.844 431.193 237.972 430.968 237.218 430.517C236.465 430.067 235.876 429.426 235.451 428.595C235.033 427.765 234.82 426.77 234.814 425.612V416.167H238.928V424.878C238.934 425.753 239.169 426.445 239.633 426.954C240.096 427.462 240.717 427.717 241.496 427.717C241.992 427.717 242.456 427.604 242.887 427.379C243.318 427.147 243.666 426.806 243.93 426.355C244.2 425.904 244.332 425.348 244.326 424.684ZM263.256 420.397L259.489 420.629C259.425 420.307 259.287 420.017 259.074 419.76C258.862 419.496 258.582 419.286 258.234 419.132C257.893 418.971 257.484 418.89 257.008 418.89C256.37 418.89 255.833 419.026 255.395 419.296C254.957 419.56 254.738 419.914 254.738 420.358C254.738 420.712 254.88 421.012 255.163 421.256C255.446 421.501 255.933 421.697 256.621 421.845L259.306 422.386C260.748 422.682 261.823 423.159 262.531 423.815C263.239 424.472 263.594 425.335 263.594 426.403C263.594 427.375 263.307 428.229 262.734 428.962C262.168 429.696 261.389 430.269 260.397 430.681C259.412 431.087 258.276 431.29 256.988 431.29C255.025 431.29 253.46 430.881 252.295 430.063C251.136 429.239 250.457 428.119 250.258 426.703L254.304 426.49C254.426 427.089 254.722 427.546 255.192 427.862C255.662 428.171 256.264 428.325 256.998 428.325C257.719 428.325 258.298 428.187 258.736 427.91C259.18 427.627 259.406 427.263 259.412 426.819C259.406 426.445 259.248 426.139 258.939 425.901C258.63 425.657 258.154 425.47 257.51 425.341L254.941 424.829C253.493 424.54 252.414 424.037 251.706 423.323C251.004 422.608 250.654 421.697 250.654 420.59C250.654 419.637 250.911 418.816 251.426 418.128C251.948 417.439 252.678 416.908 253.618 416.534C254.565 416.161 255.672 415.974 256.94 415.974C258.813 415.974 260.288 416.37 261.363 417.162C262.444 417.954 263.075 419.032 263.256 420.397Z" fill="#FAFAFA"/>
<circle cx="503.337" cy="281.779" r="6.77894" transform="rotate(90 503.337 281.779)" fill="#FAFAFA" stroke="#333333" stroke-width="4.51929"/>
<circle cx="489.779" cy="281.779" r="6.77894" transform="rotate(90 489.779 281.779)" fill="#FAFAFA" stroke="#333333" stroke-width="4.51929"/>
</svg>
